<svg width="16" height="16" viewBox="0 0 16 16" fill="none" xmlns="http://www.w3.org/2000/svg">
<path d="M0.791016 2.43671L6.07928 0.174805L10.6121 2.43671L15.3738 0.400241C15.4313 0.375649 15.494 0.365686 15.5562 0.371245C15.6185 0.376805 15.6785 0.397712 15.7307 0.432093C15.7829 0.466473 15.8257 0.513249 15.8553 0.568224C15.8849 0.623198 15.9004 0.684651 15.9003 0.747067V12.9923L10.6121 15.2542L6.07928 12.9923L1.31758 15.0287C1.26009 15.0533 1.1974 15.0633 1.1351 15.0577C1.07281 15.0522 1.01288 15.0313 0.960684 14.9969C0.908487 14.9625 0.86566 14.9157 0.836047 14.8608C0.806433 14.8058 0.79096 14.7443 0.791016 14.6819V2.43671ZM10.6121 13.5683V4.07734L10.563 4.09846L6.07928 1.86068V11.3516L6.12838 11.3305L10.6121 13.5683Z" fill="#2B2B2B"/>
</svg>
