<svg width="11" height="16" viewBox="0 0 11 16" fill="none" xmlns="http://www.w3.org/2000/svg">
<path d="M0.813083 0.587646H9.87868C10.079 0.587646 10.2712 0.667082 10.4129 0.808479C10.5545 0.949875 10.6341 1.14165 10.6341 1.34161V14.913C10.6341 15.113 10.5545 15.3048 10.4129 15.4462C10.2712 15.5876 10.079 15.667 9.87868 15.667H0.813083C0.612721 15.667 0.420566 15.5876 0.278888 15.4462C0.137211 15.3048 0.0576172 15.113 0.0576172 14.913V1.34161C0.0576172 1.14165 0.137211 0.949875 0.278888 0.808479C0.420566 0.667082 0.612721 0.587646 0.813083 0.587646ZM5.34588 11.8972C5.14552 11.8972 4.95336 11.9766 4.81168 12.118C4.67001 12.2594 4.59041 12.4512 4.59041 12.6511C4.59041 12.8511 4.67001 13.0429 4.81168 13.1843C4.95336 13.3257 5.14552 13.4051 5.34588 13.4051C5.54624 13.4051 5.7384 13.3257 5.88007 13.1843C6.02175 13.0429 6.10135 12.8511 6.10135 12.6511C6.10135 12.4512 6.02175 12.2594 5.88007 12.118C5.7384 11.9766 5.54624 11.8972 5.34588 11.8972Z" fill="#2B2B2B"/>
</svg>
